<?xml version="1.0" encoding="UTF-8"?>
<svg width="300px" height="300px" viewBox="0 0 300 300" version="1.1" xmlns="http://www.w3.org/2000/svg" xmlns:xlink="http://www.w3.org/1999/xlink">
    <!-- Generator: Sketch 42 (36781) - http://www.bohemiancoding.com/sketch -->
    <title>Logo Rounded: White</title>
    <desc>Created with Sketch.</desc>
    <defs></defs>
    <g id="Branding:-Logo-&amp;-Images" stroke="none" stroke-width="1" fill="none" fill-rule="evenodd">
        <g id="Logo-Rounded:-White" fill="#FFFFFF">
            <path d="M200,177.82625 C200,179.15 198.88125,180.2225 197.5,180.2225 L179.10125,180.2225 C177.72,180.2225 176.60125,179.15 176.60125,177.82625 L176.60125,163.48625 C176.60125,162.1625 175.48125,161.09 174.10125,161.09 C172.72,161.09 171.60125,162.1625 171.60125,163.48625 L171.60125,180.2225 L171.59125,180.2225 L151.2025,207.33875 C150.20625,208.6625 148.15,208.66625 147.15,207.34375 L126.62875,180.2225 L126.60125,180.2225 L126.60125,163.48625 C126.60125,162.1625 125.48125,161.09 124.10125,161.09 C122.72,161.09 121.60125,162.1625 121.60125,163.48625 L121.60125,177.82625 C121.60125,179.15 120.48125,180.2225 119.10125,180.2225 L102.5,180.2225 C101.11875,180.2225 100,179.15 100,177.82625 L100,110.73 C100,109.40625 101.11875,108.33375 102.5,108.33375 L125.35375,108.33375 C126.15375,108.33375 126.90625,108.70125 127.3775,109.3225 L147.15,135.455 C148.15,136.77625 150.20625,136.77375 151.2025,135.44875 L170.8425,109.32875 C171.3125,108.70375 172.0675,108.33375 172.87125,108.33375 L197.5,108.33375 C198.88125,108.33375 200,109.40625 200,110.73 L200,177.82625 Z M150,25 C80.965,25 25,80.965 25,150 C25,219.03625 80.965,275 150,275 C219.03625,275 275,219.03625 275,150 C275,80.965 219.03625,25 150,25 L150,25 Z" id="Fill-1"></path>
        </g>
    </g>
</svg>